<?xml version="1.0" standalone="no"?>
<!DOCTYPE svg PUBLIC "-//W3C//DTD SVG 20010904//EN"
 "http://www.w3.org/TR/2001/REC-SVG-20010904/DTD/svg10.dtd">
<svg version="1.0" xmlns="http://www.w3.org/2000/svg"
 width="512.000000pt" height="512.000000pt" viewBox="0 0 512.000000 512.000000"
 preserveAspectRatio="xMidYMid meet">

<g transform="translate(0.000000,512.000000) scale(0.100000,-0.100000)"
fill="#000000" stroke="none">
<path d="M2330 4945 c-488 -61 -927 -298 -1238 -670 -291 -347 -452 -788 -452
-1236 0 -615 336 -1319 966 -2025 300 -336 879 -854 954 -854 57 0 435 322
737 627 843 851 1250 1699 1173 2443 -70 672 -473 1246 -1081 1540 -330 159
-698 220 -1059 175z m498 -490 c286 -56 539 -191 747 -400 210 -209 343 -459
402 -752 24 -121 24 -393 0 -518 -116 -597 -569 -1050 -1162 -1161 -134 -25
-393 -26 -518 -1 -291 58 -544 193 -752 402 -210 209 -343 459 -402 752 -24
122 -24 404 0 526 97 486 421 883 871 1068 103 42 253 83 361 98 98 14 354 6
453 -14z"/>
<path d="M2058 3910 c-47 -14 -99 -51 -128 -91 -22 -30 -41 -94 -91 -293 l-63
-255 -39 -17 c-49 -23 -110 -91 -125 -142 -8 -26 -12 -132 -12 -311 l0 -272
25 -24 24 -25 911 0 911 0 24 25 25 24 0 278 c0 270 -1 279 -24 328 -25 54
-74 103 -122 123 -29 12 -31 18 -93 267 -71 284 -84 312 -168 362 l-48 28
-490 2 c-269 1 -502 -2 -517 -7z m986 -172 c21 -19 34 -59 80 -240 l54 -218
-618 0 -618 0 54 218 c46 181 59 221 80 240 l25 22 459 0 459 0 25 -22z m-829
-803 c16 -15 25 -36 25 -55 0 -19 -9 -40 -25 -55 -23 -24 -31 -25 -135 -25
-104 0 -112 1 -135 25 -16 15 -25 36 -25 55 0 19 9 40 25 55 23 24 31 25 135
25 104 0 112 -1 135 -25z m960 0 c16 -15 25 -36 25 -55 0 -19 -9 -40 -25 -55
-23 -24 -31 -25 -135 -25 -104 0 -112 1 -135 25 -16 15 -25 36 -25 55 0 19 9
40 25 55 23 24 31 25 135 25 104 0 112 -1 135 -25z"/>
<path d="M1764 2288 c9 -44 52 -97 94 -115 26 -11 66 -14 158 -11 105 3 127 6
150 24 39 28 63 63 70 102 l7 32 -243 0 -242 0 6 -32z"/>
<path d="M2884 2288 c9 -44 52 -97 94 -115 26 -11 66 -14 158 -11 105 3 127 6
150 24 39 28 63 63 70 102 l7 32 -243 0 -242 0 6 -32z"/>
</g>
</svg>
